<svg xmlns="http://www.w3.org/2000/svg" viewBox="0 0 1000 600" width="1000" height="600" xmlns:c2pa="http://c2pa.org/manifest"><metadata><c2pa:manifest>AAAWgmp1bWIAAAAeanVtZGMycGEAEQAQgAAAqgA4m3EDYzJwYQAAABZcanVtYgAAAEdqdW1kYzJtYQARABCAAACqADibcQN1cm46YzJwYTpkZmIwZGM1OS03YjM4LTQ4ZjgtOTBjNC1iMTRkYTViZTkyNTgAAAADl2p1bWIAAAApanVtZGMyYXMAEQAQgAAAqgA4m3EDYzJwYS5hc3NlcnRpb25zAAAAALxqdW1iAAAARGp1bWRjYm9yABEAEIAAAKoAOJtxE2MycGEuaW5ncmVkaWVudC52MwAAAAAYYzJzaK+hGEQ8QvWKdal1TFVQJqgAAABwY2JvcqNpZGM6Zm9ybWF0bWltYWdlL3N2Zyt4bWxqaW5zdGFuY2VJRHgseG1wOmlpZDpmYzNlYWQ0MC0wMWJmLTQ5ZjQtYmY0NS1iMzkyZTIxMjdkNmZscmVsYXRpb25zaGlwaHBhcmVudE9mAAAB4mp1bWIAAABBanVtZGNib3IAEQAQgAAAqgA4m3ETYzJwYS5hY3Rpb25zLnYyAAAAABhjMnNopPnAnKX/p2DqqgNgg1dQzAAAAZljYm9yomdhY3Rpb25zgqJmYWN0aW9ua2MycGEub3BlbmVkanBhcmFtZXRlcnOha2luZ3JlZGllbnRzgaJjdXJseC1zZWxmI2p1bWJmPWMycGEuYXNzZXJ0aW9ucy9jMnBhLmluZ3JlZGllbnQudjNkaGFzaFggzT+Nj5oZwF4mT5HScZIl7UPoZAMrJlNI545kIWvftEmkZmFjdGlvbngdY29tLmFudGhyb3BpYy5jbGF1ZGUucHJvdmlkZWRqcGFyYW1ldGVyc6F4H2NvbS5hbnRocm9waWMub3JpZ2luLWNvbmZpZGVuY2VndW5rbm93bmtkZXNjcmlwdGlvbnhmQ2xhdWRlIHByb3ZpZGVkIHRoaXMgZmlsZSBhdCB0aGUgcmVxdWVzdCBvZiBhIHVzZXIgYW5kIG1heSBoYXZlIGNyZWF0ZWQgb3IgbW9kaWZpZWQgdGhlIGZpbGUgY29udGVudHMubXNvZnR3YXJlQWdlbnShZG5hbWVmQ2xhdWRlcmFsbEFjdGlvbnNJbmNsdWRlZPUAAADIanVtYgAAAEBqdW1kY2JvcgARABCAAACqADibcRNjMnBhLmhhc2guZGF0YQAAAAAYYzJzaPa2vpFglCAH9i7QY5V6ONoAAACAY2JvcqVjYWxnZnNoYTI1NmNwYWRNAAAAAAAAAAAAAAAAAGRoYXNoWCAmqeEDM0eguaA5JKqWPKLcjhM5X3DUANSoMNYhroSv0GRuYW1lbmp1bWJmIG1hbmlmZXN0amV4Y2x1c2lvbnOBomVzdGFydBiYZmxlbmd0aBkeBAAAAj5qdW1iAAAAJ2p1bWRjMmNsABEAEIAAAKoAOJtxA2MycGEuY2xhaW0udjIAAAACD2Nib3KlY2FsZ2ZzaGEyNTZpc2lnbmF0dXJleE1zZWxmI2p1bWJmPS9jMnBhL3VybjpjMnBhOmRmYjBkYzU5LTdiMzgtNDhmOC05MGM0LWIxNGRhNWJlOTI1OC9jMnBhLnNpZ25hdHVyZWppbnN0YW5jZUlEeCx4bXA6aWlkOmFhOWEzYjc5LTY4ZGItNDUyMi1iYTQxLTU0NDYwOTQ0NmZjMnJjcmVhdGVkX2Fzc2VydGlvbnODomN1cmx4LXNlbGYjanVtYmY9YzJwYS5hc3NlcnRpb25zL2MycGEuaW5ncmVkaWVudC52M2RoYXNoWCDNP42PmhnAXiZPkdJxkiXtQ+hkAysmU0jnjmQha9+0SaJjdXJseCpzZWxmI2p1bWJmPWMycGEuYXNzZXJ0aW9ucy9jMnBhLmFjdGlvbnMudjJkaGFzaFggYAnxRsfVdzpVqVM7ozBTkKRJ9Syi07UFePv+hDOJNw6iY3VybHgpc2VsZiNqdW1iZj1jMnBhLmFzc2VydGlvbnMvYzJwYS5oYXNoLmRhdGFkaGFzaFggJRWOKLDZUBLuOvKlMj4XXwG6+jF5o8R7kpmG2czaydV0Y2xhaW1fZ2VuZXJhdG9yX2luZm+jZG5hbWVvQW50aHJvcGljIEZpbGVzZ3ZlcnNpb25lMS4wLjBrc3BlY1ZlcnNpb25lMi40LjAAABA4anVtYgAAAChqdW1kYzJjcwARABCAAACqADibcQNjMnBhLnNpZ25hdHVyZQAAABAIY2JvctKEWQISogEmGCFZAgowggIGMIIBjaADAgECAhRA5aAK7sI50L64g/oGQgU9Z1UTADAKBggqhkjOPQQDAzBJMRcwFQYDVQQKEw5BbnRocm9waWMsIFBCQzEuMCwGA1UEAxMlQW50aHJvcGljIENvbnRlbnQgQ3JlZGVudGlhbHMgUm9vdCBDQTAeFw0yNjA4MDcxODQzNTZaFw0yODA4MDYxOTQzNTZaMEQxFzAVBgNVBAoTDkFudGhyb3BpYywgUEJDMSkwJwYDVQQDEyBBbnRocm9waWMgQ2xhdWRlIENvbnRlbnQgU2lnbmluZzBZMBMGByqGSM49AgEGCCqGSM49AwEHA0IABJh6CmvLUBgFFNU0vUKlOVtE6djd17L5SuwX0LemFisBM3dkd/3cyjxFA3Qo5S46fX0/ihY0VZ7mfb9KF703t5OjWDBWMA4GA1UdDwEB/wQEAwIHgDAVBgNVHSUEDjAMBgorBgEEAYPoXgIBMAwGA1UdEwEB/wQCMAAwHwYDVR0jBBgwFoAUzlHiBIFOZFsj+OPEz5o+nMHXXMIwCgYIKoZIzj0EAwMDZwAwZAIwMXMdFJ4BetLLVY7ORuE9noqbbAZOZn/aArXyTwFAZfKrPzxF2vPoJNf1+UCdg1XGAjBwX1zd9WGqYkqmL5SFqw1QySjr1zJfpJM9+1rdDwSPLMOPOjKuiXjoU/pUUeG9RwmhY3BhZFkNngAAAAAAAAAAAAAAAAAAAAAAAAAAAAAAAAAAAAAAAAAAAAAAAAAAAAAAAAAAAAAAAAAAAAAAAAAAAAAAAAAAAAAAAAAAAAAAAAAAAAAAAAAAAAAAAAAAAAAAAAAAAAAAAAAAAAAAAAAAAAAAAAAAAAAAAAAAAAAAAAAAAAAAAAAAAAAAAAAAAAAAAAAAAAAAAAAAAAAAAAAAAAAAAAAAAAAAAAAAAAAAAAAAAAAAAAAAAAAAAAAAAAAAAAAAAAAAAAAAAAAAAAAAAAAAAAAAAAAAAAAAAAAAAAAAAAAAAAAAAAAAAAAAAAAAAAAAAAAAAAAAAAAAAAAAAAAAAAAAAAAAAAAAAAAAAAAAAAAAAAAAAAAAAAAAAAAAAAAAAAAAAAAAAAAAAAAAAAAAAAAAAAAAAAAAAAAAAAAAAAAAAAAAAAAAAAAAAAAAAAAAAAAAAAAAAAAAAAAAAAAAAAAAAAAAAAAAAAAAAAAAAAAAAAAAAAAAAAAAAAAAAAAAAAAAAAAAAAAAAAAAAAAAAAAAAAAAAAAAAAAAAAAAAAAAAAAAAAAAAAAAAAAAAAAAAAAAAAAAAAAAAAAAAAAAAAAAAAAAAAAAAAAAAAAAAAAAAAAAAAAAAAAAAAAAAAAAAAAAAAAAAAAAAAAAAAAAAAAAAAAAAAAAAAAAAAAAAAAAAAAAAAAAAAAAAAAAAAAAAAAAAAAAAAAAAAAAAAAAAAAAAAAAAAAAAAAAAAAAAAAAAAAAAAAAAAAAAAAAAAAAAAAAAAAAAAAAAAAAAAAAAAAAAAAAAAAAAAAAAAAAAAAAAAAAAAAAAAAAAAAAAAAAAAAAAAAAAAAAAAAAAAAAAAAAAAAAAAAAAAAAAAAAAAAAAAAAAAAAAAAAAAAAAAAAAAAAAAAAAAAAAAAAAAAAAAAAAAAAAAAAAAAAAAAAAAAAAAAAAAAAAAAAAAAAAAAAAAAAAAAAAAAAAAAAAAAAAAAAAAAAAAAAAAAAAAAAAAAAAAAAAAAAAAAAAAAAAAAAAAAAAAAAAAAAAAAAAAAAAAAAAAAAAAAAAAAAAAAAAAAAAAAAAAAAAAAAAAAAAAAAAAAAAAAAAAAAAAAAAAAAAAAAAAAAAAAAAAAAAAAAAAAAAAAAAAAAAAAAAAAAAAAAAAAAAAAAAAAAAAAAAAAAAAAAAAAAAAAAAAAAAAAAAAAAAAAAAAAAAAAAAAAAAAAAAAAAAAAAAAAAAAAAAAAAAAAAAAAAAAAAAAAAAAAAAAAAAAAAAAAAAAAAAAAAAAAAAAAAAAAAAAAAAAAAAAAAAAAAAAAAAAAAAAAAAAAAAAAAAAAAAAAAAAAAAAAAAAAAAAAAAAAAAAAAAAAAAAAAAAAAAAAAAAAAAAAAAAAAAAAAAAAAAAAAAAAAAAAAAAAAAAAAAAAAAAAAAAAAAAAAAAAAAAAAAAAAAAAAAAAAAAAAAAAAAAAAAAAAAAAAAAAAAAAAAAAAAAAAAAAAAAAAAAAAAAAAAAAAAAAAAAAAAAAAAAAAAAAAAAAAAAAAAAAAAAAAAAAAAAAAAAAAAAAAAAAAAAAAAAAAAAAAAAAAAAAAAAAAAAAAAAAAAAAAAAAAAAAAAAAAAAAAAAAAAAAAAAAAAAAAAAAAAAAAAAAAAAAAAAAAAAAAAAAAAAAAAAAAAAAAAAAAAAAAAAAAAAAAAAAAAAAAAAAAAAAAAAAAAAAAAAAAAAAAAAAAAAAAAAAAAAAAAAAAAAAAAAAAAAAAAAAAAAAAAAAAAAAAAAAAAAAAAAAAAAAAAAAAAAAAAAAAAAAAAAAAAAAAAAAAAAAAAAAAAAAAAAAAAAAAAAAAAAAAAAAAAAAAAAAAAAAAAAAAAAAAAAAAAAAAAAAAAAAAAAAAAAAAAAAAAAAAAAAAAAAAAAAAAAAAAAAAAAAAAAAAAAAAAAAAAAAAAAAAAAAAAAAAAAAAAAAAAAAAAAAAAAAAAAAAAAAAAAAAAAAAAAAAAAAAAAAAAAAAAAAAAAAAAAAAAAAAAAAAAAAAAAAAAAAAAAAAAAAAAAAAAAAAAAAAAAAAAAAAAAAAAAAAAAAAAAAAAAAAAAAAAAAAAAAAAAAAAAAAAAAAAAAAAAAAAAAAAAAAAAAAAAAAAAAAAAAAAAAAAAAAAAAAAAAAAAAAAAAAAAAAAAAAAAAAAAAAAAAAAAAAAAAAAAAAAAAAAAAAAAAAAAAAAAAAAAAAAAAAAAAAAAAAAAAAAAAAAAAAAAAAAAAAAAAAAAAAAAAAAAAAAAAAAAAAAAAAAAAAAAAAAAAAAAAAAAAAAAAAAAAAAAAAAAAAAAAAAAAAAAAAAAAAAAAAAAAAAAAAAAAAAAAAAAAAAAAAAAAAAAAAAAAAAAAAAAAAAAAAAAAAAAAAAAAAAAAAAAAAAAAAAAAAAAAAAAAAAAAAAAAAAAAAAAAAAAAAAAAAAAAAAAAAAAAAAAAAAAAAAAAAAAAAAAAAAAAAAAAAAAAAAAAAAAAAAAAAAAAAAAAAAAAAAAAAAAAAAAAAAAAAAAAAAAAAAAAAAAAAAAAAAAAAAAAAAAAAAAAAAAAAAAAAAAAAAAAAAAAAAAAAAAAAAAAAAAAAAAAAAAAAAAAAAAAAAAAAAAAAAAAAAAAAAAAAAAAAAAAAAAAAAAAAAAAAAAAAAAAAAAAAAAAAAAAAAAAAAAAAAAAAAAAAAAAAAAAAAAAAAAAAAAAAAAAAAAAAAAAAAAAAAAAAAAAAAAAAAAAAAAAAAAAAAAAAAAAAAAAAAAAAAAAAAAAAAAAAAAAAAAAAAAAAAAAAAAAAAAAAAAAAAAAAAAAAAAAAAAAAAAAAAAAAAAAAAAAAAAAAAAAAAAAAAAAAAAAAAAAAAAAAAAAAAAAAAAAAAAAAAAAAAAAAAAAAAAAAAAAAAAAAAAAAAAAAAAAAAAAAAAAAAAAAAAAAAAAAAAAAAAAAAAAAAAAAAAAAAAAAAAAAAAAAAAAAAAAAAAAAAAAAAAAAAAAAAAAAAAAAAAAAAAAAAAAAAAAAAAAAAAAAAAAAAAAAAAAAAAAAAAAAAAAAAAAAAAAAAAAAAAAAAAAAAAAAAAAAAAAAAAAAAAAAAAAAAAAAAAAAAAAAAAAAAAAAAAAAAAAAAAAAAAAAAAAAAAAAAAAAAAAAAAAAAAAAAAAAAAAAAAAAAAAAAAAAAAAAAAAAAAAAAAAAAAAAAAAAAAAAAAAAAAAAAAAAAAAAAAAAAAAAAAAAAAAAAAAAAAAAAAAAAAAAAAAAAAAAAAAAAAAAAAAAAAAAAAAAAAAAAAAAAAAAAAAAAAAAAAAAAAAAAAAAAAAAAAAAAAAAAAAAAAAAAAAAAAAAAAAAAAAAAAAAAAAAAAAAAAAAAAAAAAAAAAAAAAAAAAAAAAAAAAAAAAAAAAAAAAAAAAAAAAAAAAAAAAAAAAAAAAAAAAAAAAAAAAAAAAAAAAAAAAAAAAAAAAAAAAAAAAAAAAAAAAAAAAAAAAAAAAAAAAAAAAAAAAAAAAAAAAAAAAAAAAAAAAAAAAAAAAAAAAAAAAAAAAAAAAAAAAAAAAAAAAAAAAAAAAAAAAAAAAAAAAAAAAAAAAAAAAAAAAAAAAAAAAAAAAAAAAAAAAAAAAAAAAAAAAAAAAAAAAAAAAAAAAAAAAAAAAAAAAAAAAAAAAAAAAAAAAAAAAAAAAAAAAAAAAAAAAAAAAAAAAAAAAAAAAAAAAAAAAAAAAAAAAAAAAAAAAAAAAAAAAAAAAAAAAAAAAAAAAAAAAAAAAAAAAAAAAAAAAAAAAAAAAAAAAAAAAAAAAAAAAAAAAAAAAAAAAAAAAAAAAAAAAAAAAAAAAAAAAAAAAAAAAAAAAAAAAAAAAAAAAAAAAAAAAAAAAAAAAAAAAAAAAAAAAAAAAAAAAAAAAAAAAAAAAAAAAAAAAAAAAAAAAAAAAAAAAAAAAAAAAAAAAAAAAAAAAAAAAAAAAAAAAAAAAAAAAAAAAAAAAAAAAAAAAAAAAAAAAAAAAAAAAAAAAAAAAAAAAAAAAAAAAAAAAAAAAAAAAAAAAAAAAAAAAAAAAAAAAAAAAAAAAAAAAAAAAAAAAAAAAAAAAAAAAAAAAAAAAAAAAAAAAAAAAAAAAAAAAAAAAAAAAAAAAAAAAAAAAAAAAAAAAAAAAAAAAAAAAAAAAAAAAAAAAAAAAAAAAAAAAAAAAAAAAAAAAAAAAAAAAAAAAAAAAAAAAAAAAAAAAAAAAAAAAAAAAAAAAAAAAAAAAAAAAAAAAAAAAAAAAAAAAAAAAAAAAAAAAAAAAAAAAAAAAAAAAAAAAAAAAAAAAAAAAAAAAAAAAAAAAAAAAAAAAAAAAAAAAAAAAAAAAAAAAAAAAAAAAAAAAAAAAAAAAAAAAAAAAAAAAAAAAAAAAAAAAAAAAAAAAAAAAAAAAAAAAAAAAAAAAAAAAAAAAAAAAAAAAAAAAAAAAAAAAAAAAAAAAAAAAAAAAAAAAAAAAAAAAAAAAAAAAAAAAAAAAAAAAAAAAAAAAAAAAAAAAAAAAAAAAAAAAAAAAAAAAAAAAAAAAAAAAAAAAAAAAAAAAAAAAAAAAAAAAAAAAAAAAAAAAAAAAAAAAAAAAAAAAAAAAAAAAAAAAAAAAAAAAAAAAAAAAAAAAAAAAAAAAAAAAAAAAAAAAAAAAAAAAAAAAAAAAAAAPZYQNIhOJi21l+N1cfU4iFMA6/2cHBAxjX0X+dIyGQnXn7d8O3Ms/z/rGlojWVJVv2WMk9XycYiqxnKSPRRnY7NWl0=</c2pa:manifest></metadata>
<defs><linearGradient id="sky" x1="0" y1="0" x2="0" y2="1"><stop offset="0" stop-color="#0a1230"/><stop offset=".55" stop-color="#1a2a5e"/><stop offset="1" stop-color="#364a86"/></linearGradient><linearGradient id="gr" x1="0" y1="0" x2="0" y2="1"><stop offset="0" stop-color="#1d3a2a"/><stop offset="1" stop-color="#12281e"/></linearGradient><radialGradient id="glow"><stop offset="0" stop-color="#cfd8ff" stop-opacity=".85"/><stop offset="1" stop-color="#cfd8ff" stop-opacity="0"/></radialGradient><clipPath id="band"><rect x="0" y="404" width="1000" height="120"/></clipPath></defs>
<rect width="1000" height="410" fill="url(#sky)"/>
<circle cx="341" cy="85" r="2" fill="#fff" opacity="0.9"/>
<circle cx="59" cy="45" r="1" fill="#fff" opacity="0.7"/>
<circle cx="606" cy="37" r="1" fill="#fff" opacity="0.5"/>
<circle cx="98" cy="230" r="2" fill="#fff" opacity="0.5"/>
<circle cx="256" cy="54" r="2" fill="#fff" opacity="0.5"/>
<circle cx="856" cy="297" r="1" fill="#fff" opacity="0.5"/>
<circle cx="655" cy="39" r="2" fill="#fff" opacity="0.5"/>
<circle cx="236" cy="31" r="1" fill="#fff" opacity="0.7"/>
<circle cx="439" cy="81" r="1" fill="#fff" opacity="0.9"/>
<circle cx="325" cy="294" r="1" fill="#fff" opacity="0.5"/>
<circle cx="605" cy="300" r="1" fill="#fff" opacity="0.7"/>
<circle cx="109" cy="288" r="1" fill="#fff" opacity="0.9"/>
<circle cx="71" cy="113" r="2" fill="#fff" opacity="0.9"/>
<circle cx="554" cy="226" r="1.5" fill="#fff" opacity="0.7"/>
<circle cx="609" cy="240" r="1.5" fill="#fff" opacity="0.7"/>
<circle cx="264" cy="100" r="1" fill="#fff" opacity="0.5"/>
<circle cx="598" cy="161" r="2" fill="#fff" opacity="0.7"/>
<circle cx="756" cy="237" r="1.5" fill="#fff" opacity="0.9"/>
<circle cx="84" cy="68" r="2" fill="#fff" opacity="0.5"/>
<circle cx="785" cy="183" r="1" fill="#fff" opacity="0.7"/>
<circle cx="441" cy="28" r="1" fill="#fff" opacity="0.9"/>
<circle cx="596" cy="168" r="1.5" fill="#fff" opacity="0.9"/>
<circle cx="368" cy="262" r="2" fill="#fff" opacity="0.5"/>
<circle cx="870" cy="55" r="1.5" fill="#fff" opacity="0.7"/>
<circle cx="723" cy="41" r="1" fill="#fff" opacity="0.9"/>
<circle cx="728" cy="166" r="2" fill="#fff" opacity="0.7"/>
<circle cx="743" cy="205" r="1.5" fill="#fff" opacity="0.5"/>
<circle cx="973" cy="244" r="1.5" fill="#fff" opacity="0.5"/>
<circle cx="635" cy="67" r="2" fill="#fff" opacity="0.5"/>
<circle cx="233" cy="155" r="1" fill="#fff" opacity="0.9"/>
<circle cx="263" cy="211" r="2" fill="#fff" opacity="0.7"/>
<circle cx="92" cy="93" r="2" fill="#fff" opacity="0.7"/>
<circle cx="572" cy="150" r="1" fill="#fff" opacity="0.7"/>
<circle cx="894" cy="289" r="1.5" fill="#fff" opacity="0.9"/>
<circle cx="435" cy="191" r="2" fill="#fff" opacity="0.5"/>
<circle cx="164" cy="50" r="1" fill="#fff" opacity="0.5"/>
<circle cx="247" cy="127" r="1" fill="#fff" opacity="0.7"/>
<circle cx="861" cy="101" r="1.5" fill="#fff" opacity="0.7"/>
<circle cx="14" cy="82" r="2" fill="#fff" opacity="0.9"/>
<circle cx="388" cy="297" r="1.5" fill="#fff" opacity="0.5"/>
<circle cx="717" cy="271" r="1" fill="#fff" opacity="0.7"/>
<circle cx="931" cy="294" r="2" fill="#fff" opacity="0.7"/>
<circle cx="418" cy="209" r="1" fill="#fff" opacity="0.7"/>
<circle cx="659" cy="213" r="1" fill="#fff" opacity="0.5"/>
<circle cx="78" cy="114" r="2" fill="#fff" opacity="0.5"/>
<circle cx="122" cy="182" r="1" fill="#fff" opacity="0.5"/>
<circle cx="10" cy="298" r="1" fill="#fff" opacity="0.9"/>
<circle cx="113" cy="194" r="1" fill="#fff" opacity="0.5"/>
<circle cx="905" cy="114" r="2" fill="#fff" opacity="0.5"/>
<circle cx="659" cy="137" r="1.5" fill="#fff" opacity="0.9"/>
<circle cx="382" cy="250" r="1" fill="#fff" opacity="0.5"/>
<circle cx="879" cy="257" r="2" fill="#fff" opacity="0.7"/>
<circle cx="505" cy="167" r="1" fill="#fff" opacity="0.5"/>
<circle cx="114" cy="183" r="1.5" fill="#fff" opacity="0.7"/>
<circle cx="858" cy="90" r="1" fill="#fff" opacity="0.5"/>
<g fill="#26356e" opacity="0.6" transform="translate(520 120) scale(1)"><ellipse cx="0" cy="0" rx="70" ry="16"/><ellipse cx="-30" cy="-12" rx="34" ry="16"/><ellipse cx="22" cy="-16" rx="40" ry="19"/></g>
<g fill="#26356e" opacity="0.6" transform="translate(860 70) scale(0.8)"><ellipse cx="0" cy="0" rx="70" ry="16"/><ellipse cx="-30" cy="-12" rx="34" ry="16"/><ellipse cx="22" cy="-16" rx="40" ry="19"/></g>
<path d="M0 392 Q140 340 300 372 T620 366 T1000 354 L1000 420 L0 420Z" fill="#1f2f4f"/><path d="M0 410 Q200 372 420 396 T760 390 T1000 388 L1000 430 L0 430Z" fill="#1a3328"/>
<rect y="396" width="1000" height="204" fill="url(#gr)"/>
<path clip-path="url(#band)" d="M-500 524 L80 400" stroke="#2a4a30" stroke-width="12" fill="none" opacity=".75"/>
<path clip-path="url(#band)" d="M-420 524 L114 400" stroke="#1a3a26" stroke-width="18" fill="none" opacity=".75"/>
<path clip-path="url(#band)" d="M-340 524 L147 400" stroke="#2a4a30" stroke-width="12" fill="none" opacity=".75"/>
<path clip-path="url(#band)" d="M-260 524 L181 400" stroke="#1a3a26" stroke-width="18" fill="none" opacity=".75"/>
<path clip-path="url(#band)" d="M-180 524 L214 400" stroke="#2a4a30" stroke-width="12" fill="none" opacity=".75"/>
<path clip-path="url(#band)" d="M-100 524 L248 400" stroke="#1a3a26" stroke-width="18" fill="none" opacity=".75"/>
<path clip-path="url(#band)" d="M-20 524 L282 400" stroke="#2a4a30" stroke-width="12" fill="none" opacity=".75"/>
<path clip-path="url(#band)" d="M60 524 L315 400" stroke="#1a3a26" stroke-width="18" fill="none" opacity=".75"/>
<path clip-path="url(#band)" d="M140 524 L349 400" stroke="#2a4a30" stroke-width="12" fill="none" opacity=".75"/>
<path clip-path="url(#band)" d="M220 524 L382 400" stroke="#1a3a26" stroke-width="18" fill="none" opacity=".75"/>
<path clip-path="url(#band)" d="M300 524 L416 400" stroke="#2a4a30" stroke-width="12" fill="none" opacity=".75"/>
<path clip-path="url(#band)" d="M380 524 L450 400" stroke="#1a3a26" stroke-width="18" fill="none" opacity=".75"/>
<path clip-path="url(#band)" d="M460 524 L483 400" stroke="#2a4a30" stroke-width="12" fill="none" opacity=".75"/>
<path clip-path="url(#band)" d="M540 524 L517 400" stroke="#1a3a26" stroke-width="18" fill="none" opacity=".75"/>
<path clip-path="url(#band)" d="M620 524 L550 400" stroke="#2a4a30" stroke-width="12" fill="none" opacity=".75"/>
<path clip-path="url(#band)" d="M700 524 L584 400" stroke="#1a3a26" stroke-width="18" fill="none" opacity=".75"/>
<path clip-path="url(#band)" d="M780 524 L618 400" stroke="#2a4a30" stroke-width="12" fill="none" opacity=".75"/>
<path clip-path="url(#band)" d="M860 524 L651 400" stroke="#1a3a26" stroke-width="18" fill="none" opacity=".75"/>
<path clip-path="url(#band)" d="M940 524 L685 400" stroke="#2a4a30" stroke-width="12" fill="none" opacity=".75"/>
<path clip-path="url(#band)" d="M1020 524 L718 400" stroke="#1a3a26" stroke-width="18" fill="none" opacity=".75"/>
<path clip-path="url(#band)" d="M1100 524 L752 400" stroke="#2a4a30" stroke-width="12" fill="none" opacity=".75"/>
<path clip-path="url(#band)" d="M1180 524 L786 400" stroke="#1a3a26" stroke-width="18" fill="none" opacity=".75"/>
<path clip-path="url(#band)" d="M1260 524 L819 400" stroke="#2a4a30" stroke-width="12" fill="none" opacity=".75"/>
<path clip-path="url(#band)" d="M1340 524 L853 400" stroke="#1a3a26" stroke-width="18" fill="none" opacity=".75"/>
<path clip-path="url(#band)" d="M1420 524 L886 400" stroke="#2a4a30" stroke-width="12" fill="none" opacity=".75"/>
<rect y="520" width="1000" height="80" fill="url(#gr)"/>
<path d="M0 508 H1000 M0 520 H1000" stroke="#3a3326" stroke-width="2.5"/>
<rect x="10" y="498" width="6" height="32" fill="#3a3326"/>
<rect x="80" y="498" width="6" height="32" fill="#3a3326"/>
<rect x="150" y="498" width="6" height="32" fill="#3a3326"/>
<rect x="220" y="498" width="6" height="32" fill="#3a3326"/>
<rect x="290" y="498" width="6" height="32" fill="#3a3326"/>
<rect x="360" y="498" width="6" height="32" fill="#3a3326"/>
<rect x="430" y="498" width="6" height="32" fill="#3a3326"/>
<rect x="500" y="498" width="6" height="32" fill="#3a3326"/>
<rect x="570" y="498" width="6" height="32" fill="#3a3326"/>
<rect x="640" y="498" width="6" height="32" fill="#3a3326"/>
<rect x="710" y="498" width="6" height="32" fill="#3a3326"/>
<rect x="780" y="498" width="6" height="32" fill="#3a3326"/>
<rect x="850" y="498" width="6" height="32" fill="#3a3326"/>
<rect x="920" y="498" width="6" height="32" fill="#3a3326"/>
<rect x="990" y="498" width="6" height="32" fill="#3a3326"/>
<ellipse cx="150" cy="424" rx="40" ry="6" fill="#000" opacity="0.12"/><polygon points="139,424 161,424 154,336 146,336" fill="#9aa3ad"/><g transform="rotate(25 150 330)" fill="#9aa3ad"><rect x="147" y="284" width="6" height="92"/><rect x="104" y="327" width="92" height="6"/></g><circle cx="150" cy="330" r="6" fill="#555"/><polygon points="156,330 196,322 196,338" fill="#9aa3ad"/><rect x="176" y="396" width="26" height="28" fill="#8a96a0"/>
<polygon points="600,412 750,412 750,424 600,424" fill="#000" opacity="0.12"/>
<ellipse cx="560.0" cy="420" rx="14.0" ry="6" fill="#000" opacity="0.12"/><rect x="558" y="398" width="4" height="16" fill="#4a3322"/><ellipse cx="560" cy="344.0" rx="22.8" ry="60.0" fill="#10261c"/>
<ellipse cx="790.0" cy="420" rx="14.0" ry="6" fill="#000" opacity="0.12"/><rect x="788" y="398" width="4" height="16" fill="#4a3322"/><ellipse cx="790" cy="329.0" rx="28.5" ry="75.0" fill="#10261c"/>
<ellipse cx="830.0" cy="420" rx="14.0" ry="6" fill="#000" opacity="0.12"/><rect x="828" y="398" width="4" height="16" fill="#4a3322"/><ellipse cx="830" cy="344.0" rx="22.8" ry="60.0" fill="#10261c"/>
<rect x="600" y="322" width="150" height="90" fill="#f1e6cf"/><rect x="675" y="322" width="75" height="90" fill="#000" opacity="0.3"/><polygon points="586,324 675,260 764,324" fill="#b3563a"/><polygon points="675,260 764,324 675,324" fill="#000" opacity="0.3"/><rect x="712" y="262" width="14" height="40" fill="#8b4a36"/><rect x="614" y="346" width="30" height="30" fill="#ffd36b" stroke="#5b4636" stroke-width="3"/><rect x="706" y="346" width="30" height="30" fill="#ffd36b" stroke="#5b4636" stroke-width="3"/><rect x="660" y="354" width="30" height="58" fill="#6b4630"/><rect x="594" y="378" width="162" height="6" fill="#d8cdb8"/>
<g transform="translate(260 548) scale(0.95 0.95)"><ellipse cx="0" cy="36" rx="48" ry="7" fill="#000" opacity=".22"/><rect x="-32" y="12" width="7" height="24" rx="2" fill="#f4f0e8"/><rect x="-32" y="31" width="7" height="5" fill="#2b2118"/><rect x="-19" y="12" width="7" height="24" rx="2" fill="#f4f0e8"/><rect x="-19" y="31" width="7" height="5" fill="#2b2118"/><rect x="16" y="12" width="7" height="24" rx="2" fill="#f4f0e8"/><rect x="16" y="31" width="7" height="5" fill="#2b2118"/><rect x="29" y="12" width="7" height="24" rx="2" fill="#f4f0e8"/><rect x="29" y="31" width="7" height="5" fill="#2b2118"/><ellipse cx="0" cy="4" rx="45" ry="21" fill="#f4f0e8"/><ellipse cx="-14" cy="-3" rx="14" ry="9" fill="#2a2a2a"/><ellipse cx="17" cy="9" rx="10" ry="7" fill="#2a2a2a"/><path d="M-44 -2 q-10 8 -6 26" stroke="#f4f0e8" stroke-width="4" fill="none"/><path d="M36 -9 L58 -4 L60 14 L44 17 Z" fill="#f4f0e8"/><ellipse cx="63" cy="10" rx="11" ry="9" fill="#f4f0e8"/><ellipse cx="68" cy="14" rx="4" ry="3" fill="#d9a7a0"/><circle cx="61" cy="5" r="1.7" fill="#111"/><path d="M52 -4 l-4 -7 M58 -5 l3 -8" stroke="#e8dcc0" stroke-width="3"/></g>
<g transform="translate(470 566) scale(-1.05 1.05)"><ellipse cx="0" cy="36" rx="48" ry="7" fill="#000" opacity=".22"/><rect x="-32" y="12" width="7" height="24" rx="2" fill="#9a4b24"/><rect x="-32" y="31" width="7" height="5" fill="#2b2118"/><rect x="-19" y="12" width="7" height="24" rx="2" fill="#9a4b24"/><rect x="-19" y="31" width="7" height="5" fill="#2b2118"/><rect x="16" y="12" width="7" height="24" rx="2" fill="#9a4b24"/><rect x="16" y="31" width="7" height="5" fill="#2b2118"/><rect x="29" y="12" width="7" height="24" rx="2" fill="#9a4b24"/><rect x="29" y="31" width="7" height="5" fill="#2b2118"/><ellipse cx="0" cy="4" rx="45" ry="21" fill="#9a4b24"/><path d="M-44 -2 q-10 8 -6 26" stroke="#9a4b24" stroke-width="4" fill="none"/><path d="M36 -9 L58 -4 L60 14 L44 17 Z" fill="#9a4b24"/><ellipse cx="63" cy="10" rx="11" ry="9" fill="#f1e8d8"/><ellipse cx="68" cy="14" rx="4" ry="3" fill="#d9a7a0"/><circle cx="61" cy="5" r="1.7" fill="#111"/><path d="M52 -4 l-4 -7 M58 -5 l3 -8" stroke="#e8dcc0" stroke-width="3"/></g>
<g transform="translate(700 552) scale(0.85 0.85)"><ellipse cx="0" cy="36" rx="48" ry="7" fill="#000" opacity=".22"/><rect x="-32" y="12" width="7" height="24" rx="2" fill="#f4f0e8"/><rect x="-32" y="31" width="7" height="5" fill="#2b2118"/><rect x="-19" y="12" width="7" height="24" rx="2" fill="#f4f0e8"/><rect x="-19" y="31" width="7" height="5" fill="#2b2118"/><rect x="16" y="12" width="7" height="24" rx="2" fill="#f4f0e8"/><rect x="16" y="31" width="7" height="5" fill="#2b2118"/><rect x="29" y="12" width="7" height="24" rx="2" fill="#f4f0e8"/><rect x="29" y="31" width="7" height="5" fill="#2b2118"/><ellipse cx="0" cy="4" rx="45" ry="21" fill="#f4f0e8"/><ellipse cx="-14" cy="-3" rx="14" ry="9" fill="#3a2a22"/><ellipse cx="17" cy="9" rx="10" ry="7" fill="#3a2a22"/><path d="M-44 -2 q-10 8 -6 26" stroke="#f4f0e8" stroke-width="4" fill="none"/><path d="M36 -9 L58 -4 L60 14 L44 17 Z" fill="#f4f0e8"/><ellipse cx="63" cy="10" rx="11" ry="9" fill="#f4f0e8"/><ellipse cx="68" cy="14" rx="4" ry="3" fill="#d9a7a0"/><circle cx="61" cy="5" r="1.7" fill="#111"/><path d="M52 -4 l-4 -7 M58 -5 l3 -8" stroke="#e8dcc0" stroke-width="3"/></g>
<g transform="translate(900 570) scale(-1.0 1.0)"><ellipse cx="0" cy="36" rx="48" ry="7" fill="#000" opacity=".22"/><rect x="-32" y="12" width="7" height="24" rx="2" fill="#2e2622"/><rect x="-32" y="31" width="7" height="5" fill="#2b2118"/><rect x="-19" y="12" width="7" height="24" rx="2" fill="#2e2622"/><rect x="-19" y="31" width="7" height="5" fill="#2b2118"/><rect x="16" y="12" width="7" height="24" rx="2" fill="#2e2622"/><rect x="16" y="31" width="7" height="5" fill="#2b2118"/><rect x="29" y="12" width="7" height="24" rx="2" fill="#2e2622"/><rect x="29" y="31" width="7" height="5" fill="#2b2118"/><ellipse cx="0" cy="4" rx="45" ry="21" fill="#2e2622"/><path d="M-44 -2 q-10 8 -6 26" stroke="#2e2622" stroke-width="4" fill="none"/><path d="M36 -9 L58 -4 L60 14 L44 17 Z" fill="#2e2622"/><ellipse cx="63" cy="10" rx="11" ry="9" fill="#2e2622"/><ellipse cx="68" cy="14" rx="4" ry="3" fill="#d9a7a0"/><circle cx="61" cy="5" r="1.7" fill="#111"/><path d="M52 -4 l-4 -7 M58 -5 l3 -8" stroke="#e8dcc0" stroke-width="3"/></g>
<rect width="1000" height="600" fill="#0b1640" opacity="0.42"/>
<circle cx="210" cy="100" r="120" fill="url(#glow)"/><circle cx="210" cy="100" r="34" fill="#f3efd8"/><circle cx="220" cy="96" r="30" fill="#0a1230" opacity=".25"/>
<rect x="614" y="346" width="30" height="30" fill="#ffd36b" stroke="#5b4636" stroke-width="3"/>
<rect x="706" y="346" width="30" height="30" fill="#ffd36b" stroke="#5b4636" stroke-width="3"/>
</svg>